<mxfile host="app.diagrams.net" agent="Mozilla/5.0 (Windows NT 10.0; Win64; x64) AppleWebKit/537.36 (KHTML, like Gecko) Chrome/128.0.0.0 Safari/537.36 Edg/128.0.0.0" version="24.7.14">
  <diagram name="Page-1" id="sx-vZmdEI7Dzdy8BObgy">
    <mxGraphModel dx="3981" dy="3554" grid="1" gridSize="10" guides="1" tooltips="1" connect="1" arrows="1" fold="1" page="1" pageScale="1" pageWidth="850" pageHeight="1100" math="0" shadow="0">
      <root>
        <mxCell id="0" />
        <mxCell id="1" parent="0" />
        <mxCell id="mL7WgcL4VkOcFJiBh1qk-1" value="" style="verticalLabelPosition=bottom;html=1;verticalAlign=top;align=center;strokeColor=none;fillColor=#00BEF2;shape=mxgraph.azure.computer;pointerEvents=1;" vertex="1" parent="1">
          <mxGeometry x="112" y="-1028" width="109" height="98" as="geometry" />
        </mxCell>
        <mxCell id="mL7WgcL4VkOcFJiBh1qk-2" value="" style="sketch=0;points=[[0.015,0.015,0],[0.985,0.015,0],[0.985,0.985,0],[0.015,0.985,0],[0.25,0,0],[0.5,0,0],[0.75,0,0],[1,0.25,0],[1,0.5,0],[1,0.75,0],[0.75,1,0],[0.5,1,0],[0.25,1,0],[0,0.75,0],[0,0.5,0],[0,0.25,0]];verticalLabelPosition=bottom;html=1;verticalAlign=top;aspect=fixed;align=center;pointerEvents=1;shape=mxgraph.cisco19.rect;prIcon=l2_switch;fillColor=#FAFAFA;strokeColor=#005073;" vertex="1" parent="1">
          <mxGeometry x="549.25" y="-1028" width="96" height="96" as="geometry" />
        </mxCell>
        <mxCell id="mL7WgcL4VkOcFJiBh1qk-3" value="" style="sketch=0;points=[[0.015,0.015,0],[0.985,0.015,0],[0.985,0.985,0],[0.015,0.985,0],[0.25,0,0],[0.5,0,0],[0.75,0,0],[1,0.25,0],[1,0.5,0],[1,0.75,0],[0.75,1,0],[0.5,1,0],[0.25,1,0],[0,0.75,0],[0,0.5,0],[0,0.25,0]];verticalLabelPosition=bottom;html=1;verticalAlign=top;aspect=fixed;align=center;pointerEvents=1;shape=mxgraph.cisco19.rect;prIcon=ise;fillColor=#FAFAFA;strokeColor=#005073;" vertex="1" parent="1">
          <mxGeometry x="999" y="-1028" width="98" height="98" as="geometry" />
        </mxCell>
        <mxCell id="mL7WgcL4VkOcFJiBh1qk-4" value="" style="verticalLabelPosition=bottom;html=1;verticalAlign=top;align=center;strokeColor=none;fillColor=#00BEF2;shape=mxgraph.azure.computer;pointerEvents=1;" vertex="1" parent="1">
          <mxGeometry x="120" y="-40" width="109" height="98" as="geometry" />
        </mxCell>
        <mxCell id="mL7WgcL4VkOcFJiBh1qk-5" value="" style="sketch=0;points=[[0.015,0.015,0],[0.985,0.015,0],[0.985,0.985,0],[0.015,0.985,0],[0.25,0,0],[0.5,0,0],[0.75,0,0],[1,0.25,0],[1,0.5,0],[1,0.75,0],[0.75,1,0],[0.5,1,0],[0.25,1,0],[0,0.75,0],[0,0.5,0],[0,0.25,0]];verticalLabelPosition=bottom;html=1;verticalAlign=top;aspect=fixed;align=center;pointerEvents=1;shape=mxgraph.cisco19.rect;prIcon=l2_switch;fillColor=#FAFAFA;strokeColor=#005073;" vertex="1" parent="1">
          <mxGeometry x="557" y="-40" width="96" height="96" as="geometry" />
        </mxCell>
        <mxCell id="mL7WgcL4VkOcFJiBh1qk-6" value="" style="sketch=0;points=[[0.015,0.015,0],[0.985,0.015,0],[0.985,0.985,0],[0.015,0.985,0],[0.25,0,0],[0.5,0,0],[0.75,0,0],[1,0.25,0],[1,0.5,0],[1,0.75,0],[0.75,1,0],[0.5,1,0],[0.25,1,0],[0,0.75,0],[0,0.5,0],[0,0.25,0]];verticalLabelPosition=bottom;html=1;verticalAlign=top;aspect=fixed;align=center;pointerEvents=1;shape=mxgraph.cisco19.rect;prIcon=ise;fillColor=#FAFAFA;strokeColor=#005073;" vertex="1" parent="1">
          <mxGeometry x="1010" y="-41" width="98" height="98" as="geometry" />
        </mxCell>
        <mxCell id="mL7WgcL4VkOcFJiBh1qk-7" value="" style="endArrow=none;html=1;rounded=0;exitX=0.536;exitY=-0.033;exitDx=0;exitDy=0;exitPerimeter=0;entryX=0.528;entryY=0.995;entryDx=0;entryDy=0;entryPerimeter=0;" edge="1" parent="1" source="mL7WgcL4VkOcFJiBh1qk-5" target="mL7WgcL4VkOcFJiBh1qk-2">
          <mxGeometry width="50" height="50" relative="1" as="geometry">
            <mxPoint x="597" y="370" as="sourcePoint" />
            <mxPoint x="600" y="-1060" as="targetPoint" />
          </mxGeometry>
        </mxCell>
        <mxCell id="mL7WgcL4VkOcFJiBh1qk-8" value="" style="endArrow=none;html=1;rounded=0;exitX=0.5;exitY=0;exitDx=0;exitDy=0;exitPerimeter=0;" edge="1" parent="1" source="mL7WgcL4VkOcFJiBh1qk-6" target="mL7WgcL4VkOcFJiBh1qk-3">
          <mxGeometry width="50" height="50" relative="1" as="geometry">
            <mxPoint x="1033" y="-272" as="sourcePoint" />
            <mxPoint x="1033" y="-879" as="targetPoint" />
          </mxGeometry>
        </mxCell>
        <mxCell id="mL7WgcL4VkOcFJiBh1qk-9" value="" style="endArrow=none;html=1;rounded=0;exitX=0.5;exitY=0;exitDx=0;exitDy=0;exitPerimeter=0;" edge="1" parent="1" source="mL7WgcL4VkOcFJiBh1qk-4" target="mL7WgcL4VkOcFJiBh1qk-1">
          <mxGeometry width="50" height="50" relative="1" as="geometry">
            <mxPoint x="224" y="-247" as="sourcePoint" />
            <mxPoint x="224" y="-854" as="targetPoint" />
          </mxGeometry>
        </mxCell>
        <mxCell id="mL7WgcL4VkOcFJiBh1qk-10" value="" style="endArrow=classic;html=1;rounded=0;flowAnimation=1;shadow=1;fillColor=#fa6800;strokeColor=#C73500;curved=0;strokeWidth=3;" edge="1" parent="1">
          <mxGeometry relative="1" as="geometry">
            <mxPoint x="587" y="-891" as="sourcePoint" />
            <mxPoint x="166" y="-889" as="targetPoint" />
          </mxGeometry>
        </mxCell>
        <mxCell id="mL7WgcL4VkOcFJiBh1qk-11" value="Label" style="edgeLabel;resizable=0;html=1;;align=center;verticalAlign=middle;" connectable="0" vertex="1" parent="mL7WgcL4VkOcFJiBh1qk-10">
          <mxGeometry relative="1" as="geometry" />
        </mxCell>
        <mxCell id="mL7WgcL4VkOcFJiBh1qk-12" value="&lt;b&gt;&lt;font style=&quot;font-size: 14px;&quot;&gt;EAP-Request/Identity&lt;/font&gt;&lt;/b&gt;" style="edgeLabel;html=1;align=center;verticalAlign=middle;resizable=0;points=[];" vertex="1" connectable="0" parent="mL7WgcL4VkOcFJiBh1qk-10">
          <mxGeometry x="-0.0071" y="3" relative="1" as="geometry">
            <mxPoint as="offset" />
          </mxGeometry>
        </mxCell>
        <mxCell id="mL7WgcL4VkOcFJiBh1qk-13" value="" style="endArrow=classic;html=1;rounded=0;flowAnimation=1;shadow=1;fillColor=#fa6800;strokeColor=#C73500;strokeWidth=3;" edge="1" parent="1">
          <mxGeometry relative="1" as="geometry">
            <mxPoint x="170" y="-864" as="sourcePoint" />
            <mxPoint x="587" y="-867" as="targetPoint" />
          </mxGeometry>
        </mxCell>
        <mxCell id="mL7WgcL4VkOcFJiBh1qk-14" value="Label" style="edgeLabel;resizable=0;html=1;;align=center;verticalAlign=middle;" connectable="0" vertex="1" parent="mL7WgcL4VkOcFJiBh1qk-13">
          <mxGeometry relative="1" as="geometry" />
        </mxCell>
        <mxCell id="mL7WgcL4VkOcFJiBh1qk-15" value="&lt;b&gt;&lt;font style=&quot;font-size: 14px;&quot;&gt;EAP-Response/Identity&lt;/font&gt;&lt;/b&gt;" style="edgeLabel;html=1;align=center;verticalAlign=middle;resizable=0;points=[];" vertex="1" connectable="0" parent="mL7WgcL4VkOcFJiBh1qk-13">
          <mxGeometry x="-0.0071" y="3" relative="1" as="geometry">
            <mxPoint as="offset" />
          </mxGeometry>
        </mxCell>
        <mxCell id="mL7WgcL4VkOcFJiBh1qk-16" value="" style="endArrow=classic;html=1;rounded=0;flowAnimation=1;shadow=1;fillColor=#6d8764;strokeColor=#3A5431;strokeWidth=3;" edge="1" parent="1">
          <mxGeometry relative="1" as="geometry">
            <mxPoint x="595" y="-844" as="sourcePoint" />
            <mxPoint x="1038" y="-847" as="targetPoint" />
          </mxGeometry>
        </mxCell>
        <mxCell id="mL7WgcL4VkOcFJiBh1qk-17" value="Label" style="edgeLabel;resizable=0;html=1;;align=center;verticalAlign=middle;" connectable="0" vertex="1" parent="mL7WgcL4VkOcFJiBh1qk-16">
          <mxGeometry relative="1" as="geometry" />
        </mxCell>
        <mxCell id="mL7WgcL4VkOcFJiBh1qk-18" value="&lt;font size=&quot;1&quot; style=&quot;&quot;&gt;&lt;b style=&quot;font-size: 14px;&quot;&gt;Radius Access-Reques&lt;/b&gt;&lt;/font&gt;" style="edgeLabel;html=1;align=center;verticalAlign=middle;resizable=0;points=[];" vertex="1" connectable="0" parent="mL7WgcL4VkOcFJiBh1qk-16">
          <mxGeometry x="-0.0071" y="3" relative="1" as="geometry">
            <mxPoint as="offset" />
          </mxGeometry>
        </mxCell>
        <mxCell id="mL7WgcL4VkOcFJiBh1qk-19" value="" style="endArrow=classic;html=1;rounded=0;flowAnimation=1;shadow=1;fontSize=13;fontStyle=1;fillColor=#fa6800;strokeColor=#C73500;strokeWidth=3;" edge="1" parent="1">
          <mxGeometry relative="1" as="geometry">
            <mxPoint x="170" y="-745" as="sourcePoint" />
            <mxPoint x="1043" y="-745" as="targetPoint" />
          </mxGeometry>
        </mxCell>
        <mxCell id="mL7WgcL4VkOcFJiBh1qk-20" value="Label" style="edgeLabel;resizable=0;html=1;;align=center;verticalAlign=middle;" connectable="0" vertex="1" parent="mL7WgcL4VkOcFJiBh1qk-19">
          <mxGeometry relative="1" as="geometry" />
        </mxCell>
        <mxCell id="mL7WgcL4VkOcFJiBh1qk-21" value="&lt;font style=&quot;font-size: 14px;&quot;&gt;Handshake: Client Hello&lt;/font&gt;" style="edgeLabel;html=1;align=center;verticalAlign=middle;resizable=0;points=[];fontStyle=1;fontSize=13;" vertex="1" connectable="0" parent="mL7WgcL4VkOcFJiBh1qk-19">
          <mxGeometry x="-0.0071" y="3" relative="1" as="geometry">
            <mxPoint as="offset" />
          </mxGeometry>
        </mxCell>
        <mxCell id="mL7WgcL4VkOcFJiBh1qk-22" value="" style="endArrow=classic;html=1;rounded=0;flowAnimation=1;shadow=1;fontSize=13;fontStyle=1;fillColor=#76608a;strokeColor=#432D57;strokeWidth=3;" edge="1" parent="1">
          <mxGeometry relative="1" as="geometry">
            <mxPoint x="1039" y="-722" as="sourcePoint" />
            <mxPoint x="169" y="-722" as="targetPoint" />
          </mxGeometry>
        </mxCell>
        <mxCell id="mL7WgcL4VkOcFJiBh1qk-23" value="Label" style="edgeLabel;resizable=0;html=1;;align=center;verticalAlign=middle;" connectable="0" vertex="1" parent="mL7WgcL4VkOcFJiBh1qk-22">
          <mxGeometry relative="1" as="geometry" />
        </mxCell>
        <mxCell id="mL7WgcL4VkOcFJiBh1qk-24" value="&lt;font style=&quot;font-size: 14px;&quot;&gt;Handshake : Server Hello, Server Certificate, Key&lt;/font&gt;" style="edgeLabel;html=1;align=center;verticalAlign=middle;resizable=0;points=[];fontStyle=1;fontSize=13;" vertex="1" connectable="0" parent="mL7WgcL4VkOcFJiBh1qk-22">
          <mxGeometry x="-0.0071" y="3" relative="1" as="geometry">
            <mxPoint as="offset" />
          </mxGeometry>
        </mxCell>
        <mxCell id="mL7WgcL4VkOcFJiBh1qk-27" value="" style="endArrow=classic;html=1;rounded=0;flowAnimation=1;shadow=1;fontSize=13;fontStyle=1;fillColor=#76608a;strokeColor=#432D57;strokeWidth=3;" edge="1" parent="1">
          <mxGeometry relative="1" as="geometry">
            <mxPoint x="1042" y="-787" as="sourcePoint" />
            <mxPoint x="169" y="-787" as="targetPoint" />
          </mxGeometry>
        </mxCell>
        <mxCell id="mL7WgcL4VkOcFJiBh1qk-28" value="Label" style="edgeLabel;resizable=0;html=1;;align=center;verticalAlign=middle;" connectable="0" vertex="1" parent="mL7WgcL4VkOcFJiBh1qk-27">
          <mxGeometry relative="1" as="geometry" />
        </mxCell>
        <mxCell id="mL7WgcL4VkOcFJiBh1qk-29" value="&lt;b&gt;&lt;font style=&quot;font-size: 14px;&quot;&gt;EAP-Request : PEAP (start)&lt;/font&gt;&lt;/b&gt;" style="edgeLabel;html=1;align=center;verticalAlign=middle;resizable=0;points=[];" vertex="1" connectable="0" parent="mL7WgcL4VkOcFJiBh1qk-27">
          <mxGeometry x="-0.0071" y="3" relative="1" as="geometry">
            <mxPoint as="offset" />
          </mxGeometry>
        </mxCell>
        <mxCell id="mL7WgcL4VkOcFJiBh1qk-30" value="&lt;h1 style=&quot;margin-top: 0px;&quot;&gt;PEAP-MSCHAPv2&lt;/h1&gt;&lt;div&gt;&lt;b&gt;MSCHAPv2 inside PEAP.&lt;/b&gt;&lt;/div&gt;&lt;div&gt;&lt;br&gt;&lt;/div&gt;&lt;div&gt;&lt;i&gt;Requirements : &lt;br&gt;&lt;/i&gt;&lt;ul&gt;&lt;li&gt;Server side certificate must be signed by trusted CA&lt;/li&gt;&lt;li&gt;Common CA must be trusted&lt;/li&gt;&lt;/ul&gt;&lt;/div&gt;" style="text;html=1;whiteSpace=wrap;overflow=hidden;rounded=0;" vertex="1" parent="1">
          <mxGeometry x="112" y="-1200" width="623" height="147" as="geometry" />
        </mxCell>
        <mxCell id="mL7WgcL4VkOcFJiBh1qk-31" value="" style="rounded=1;whiteSpace=wrap;html=1;fillColor=none;strokeWidth=3;strokeColor=#d79b00;glass=1;gradientColor=#ffa500;" vertex="1" parent="1">
          <mxGeometry x="120" y="-823" width="970" height="663" as="geometry" />
        </mxCell>
        <mxCell id="mL7WgcL4VkOcFJiBh1qk-32" value="&lt;b&gt;&lt;font style=&quot;font-size: 17px;&quot;&gt;EAP-TLS&lt;/font&gt;&lt;/b&gt;" style="text;html=1;align=center;verticalAlign=middle;resizable=0;points=[];autosize=1;strokeColor=none;fillColor=none;labelBackgroundColor=default;" vertex="1" parent="1">
          <mxGeometry x="546.75" y="-170" width="91" height="32" as="geometry" />
        </mxCell>
        <mxCell id="mL7WgcL4VkOcFJiBh1qk-33" value="&lt;b&gt;&lt;font style=&quot;font-size: 17px;&quot;&gt;EAP-TLS&lt;/font&gt;&lt;/b&gt;" style="text;html=1;align=center;verticalAlign=middle;resizable=0;points=[];autosize=1;strokeColor=none;fillColor=none;labelBackgroundColor=default;" vertex="1" parent="1">
          <mxGeometry x="549.25" y="-840" width="91" height="32" as="geometry" />
        </mxCell>
        <mxCell id="mL7WgcL4VkOcFJiBh1qk-34" value="&lt;b&gt;&lt;font style=&quot;font-size: 14px;&quot;&gt;&lt;i&gt;Client : Verify is Server certificate is signed by trusted CA***&lt;/i&gt;&lt;/font&gt;&lt;/b&gt;" style="text;html=1;align=center;verticalAlign=middle;resizable=0;points=[];autosize=1;strokeColor=none;fillColor=none;" vertex="1" parent="1">
          <mxGeometry x="163" y="-620" width="420" height="30" as="geometry" />
        </mxCell>
        <mxCell id="mL7WgcL4VkOcFJiBh1qk-38" value="" style="endArrow=classic;html=1;rounded=0;flowAnimation=1;shadow=1;fillColor=#6d8764;strokeColor=#3A5431;strokeWidth=3;" edge="1" parent="1">
          <mxGeometry relative="1" as="geometry">
            <mxPoint x="1040" y="-420" as="sourcePoint" />
            <mxPoint x="180" y="-420" as="targetPoint" />
          </mxGeometry>
        </mxCell>
        <mxCell id="mL7WgcL4VkOcFJiBh1qk-39" value="Label" style="edgeLabel;resizable=0;html=1;;align=center;verticalAlign=middle;" connectable="0" vertex="1" parent="mL7WgcL4VkOcFJiBh1qk-38">
          <mxGeometry relative="1" as="geometry" />
        </mxCell>
        <mxCell id="mL7WgcL4VkOcFJiBh1qk-40" value="&lt;span style=&quot;font-size: 14px;&quot;&gt;&lt;b&gt;EAP-Request Identify&lt;/b&gt;&lt;/span&gt;" style="edgeLabel;html=1;align=center;verticalAlign=middle;resizable=0;points=[];" vertex="1" connectable="0" parent="mL7WgcL4VkOcFJiBh1qk-38">
          <mxGeometry x="-0.0071" y="3" relative="1" as="geometry">
            <mxPoint as="offset" />
          </mxGeometry>
        </mxCell>
        <mxCell id="mL7WgcL4VkOcFJiBh1qk-43" value="" style="endArrow=classic;html=1;rounded=0;flowAnimation=1;shadow=1;fillColor=#6d8764;strokeColor=#3A5431;strokeWidth=3;" edge="1" parent="1">
          <mxGeometry relative="1" as="geometry">
            <mxPoint x="180" y="-380" as="sourcePoint" />
            <mxPoint x="1040" y="-380" as="targetPoint" />
          </mxGeometry>
        </mxCell>
        <mxCell id="mL7WgcL4VkOcFJiBh1qk-44" value="Label" style="edgeLabel;resizable=0;html=1;;align=center;verticalAlign=middle;" connectable="0" vertex="1" parent="mL7WgcL4VkOcFJiBh1qk-43">
          <mxGeometry relative="1" as="geometry" />
        </mxCell>
        <mxCell id="mL7WgcL4VkOcFJiBh1qk-45" value="&lt;span style=&quot;font-size: 14px;&quot;&gt;&lt;b&gt;EAP-Response Identify (MSCHAPv2)&lt;/b&gt;&lt;/span&gt;" style="edgeLabel;html=1;align=center;verticalAlign=middle;resizable=0;points=[];" vertex="1" connectable="0" parent="mL7WgcL4VkOcFJiBh1qk-43">
          <mxGeometry x="-0.0071" y="3" relative="1" as="geometry">
            <mxPoint as="offset" />
          </mxGeometry>
        </mxCell>
        <mxCell id="mL7WgcL4VkOcFJiBh1qk-46" value="" style="endArrow=classic;html=1;rounded=0;flowAnimation=1;shadow=1;fillColor=#6d8764;strokeColor=#3A5431;strokeWidth=3;" edge="1" parent="1">
          <mxGeometry relative="1" as="geometry">
            <mxPoint x="1050" y="-350" as="sourcePoint" />
            <mxPoint x="190" y="-350" as="targetPoint" />
          </mxGeometry>
        </mxCell>
        <mxCell id="mL7WgcL4VkOcFJiBh1qk-47" value="Label" style="edgeLabel;resizable=0;html=1;;align=center;verticalAlign=middle;" connectable="0" vertex="1" parent="mL7WgcL4VkOcFJiBh1qk-46">
          <mxGeometry relative="1" as="geometry" />
        </mxCell>
        <mxCell id="mL7WgcL4VkOcFJiBh1qk-48" value="&lt;span style=&quot;font-size: 14px;&quot;&gt;&lt;b&gt;EAP-Request Challenge (MSCHAPv2)&lt;/b&gt;&lt;/span&gt;" style="edgeLabel;html=1;align=center;verticalAlign=middle;resizable=0;points=[];" vertex="1" connectable="0" parent="mL7WgcL4VkOcFJiBh1qk-46">
          <mxGeometry x="-0.0071" y="3" relative="1" as="geometry">
            <mxPoint as="offset" />
          </mxGeometry>
        </mxCell>
        <mxCell id="mL7WgcL4VkOcFJiBh1qk-50" value="" style="endArrow=classic;html=1;rounded=0;flowAnimation=1;shadow=1;fillColor=#6d8764;strokeColor=#3A5431;strokeWidth=3;" edge="1" parent="1">
          <mxGeometry relative="1" as="geometry">
            <mxPoint x="189" y="-300" as="sourcePoint" />
            <mxPoint x="1049" y="-300" as="targetPoint" />
          </mxGeometry>
        </mxCell>
        <mxCell id="mL7WgcL4VkOcFJiBh1qk-51" value="Label" style="edgeLabel;resizable=0;html=1;;align=center;verticalAlign=middle;" connectable="0" vertex="1" parent="mL7WgcL4VkOcFJiBh1qk-50">
          <mxGeometry relative="1" as="geometry" />
        </mxCell>
        <mxCell id="mL7WgcL4VkOcFJiBh1qk-52" value="&lt;span style=&quot;font-size: 14px;&quot;&gt;&lt;b&gt;EAP-Response Challenge (MSCHAPv2)&lt;/b&gt;&lt;/span&gt;" style="edgeLabel;html=1;align=center;verticalAlign=middle;resizable=0;points=[];" vertex="1" connectable="0" parent="mL7WgcL4VkOcFJiBh1qk-50">
          <mxGeometry x="-0.0071" y="3" relative="1" as="geometry">
            <mxPoint as="offset" />
          </mxGeometry>
        </mxCell>
        <mxCell id="mL7WgcL4VkOcFJiBh1qk-53" value="" style="endArrow=classic;html=1;rounded=0;flowAnimation=1;shadow=1;fillColor=#6d8764;strokeColor=#3A5431;strokeWidth=3;" edge="1" parent="1">
          <mxGeometry relative="1" as="geometry">
            <mxPoint x="1040" y="-270" as="sourcePoint" />
            <mxPoint x="180" y="-270" as="targetPoint" />
          </mxGeometry>
        </mxCell>
        <mxCell id="mL7WgcL4VkOcFJiBh1qk-54" value="Label" style="edgeLabel;resizable=0;html=1;;align=center;verticalAlign=middle;" connectable="0" vertex="1" parent="mL7WgcL4VkOcFJiBh1qk-53">
          <mxGeometry relative="1" as="geometry" />
        </mxCell>
        <mxCell id="mL7WgcL4VkOcFJiBh1qk-55" value="&lt;span style=&quot;font-size: 14px;&quot;&gt;&lt;b&gt;EAP-Request Access-Accept (MSCHAPv2)&lt;/b&gt;&lt;/span&gt;" style="edgeLabel;html=1;align=center;verticalAlign=middle;resizable=0;points=[];" vertex="1" connectable="0" parent="mL7WgcL4VkOcFJiBh1qk-53">
          <mxGeometry x="-0.0071" y="3" relative="1" as="geometry">
            <mxPoint as="offset" />
          </mxGeometry>
        </mxCell>
        <mxCell id="mL7WgcL4VkOcFJiBh1qk-56" value="" style="endArrow=classic;html=1;rounded=0;flowAnimation=1;shadow=1;fillColor=#6d8764;strokeColor=#3A5431;strokeWidth=3;" edge="1" parent="1">
          <mxGeometry relative="1" as="geometry">
            <mxPoint x="200" y="-230" as="sourcePoint" />
            <mxPoint x="1060" y="-230" as="targetPoint" />
          </mxGeometry>
        </mxCell>
        <mxCell id="mL7WgcL4VkOcFJiBh1qk-57" value="Label" style="edgeLabel;resizable=0;html=1;;align=center;verticalAlign=middle;" connectable="0" vertex="1" parent="mL7WgcL4VkOcFJiBh1qk-56">
          <mxGeometry relative="1" as="geometry" />
        </mxCell>
        <mxCell id="mL7WgcL4VkOcFJiBh1qk-58" value="&lt;span style=&quot;font-size: 14px;&quot;&gt;&lt;b&gt;EAP-Response Ack (MSCHAPv2)&lt;/b&gt;&lt;/span&gt;" style="edgeLabel;html=1;align=center;verticalAlign=middle;resizable=0;points=[];" vertex="1" connectable="0" parent="mL7WgcL4VkOcFJiBh1qk-56">
          <mxGeometry x="-0.0071" y="3" relative="1" as="geometry">
            <mxPoint as="offset" />
          </mxGeometry>
        </mxCell>
        <mxCell id="mL7WgcL4VkOcFJiBh1qk-59" value="" style="shape=flexArrow;endArrow=classic;startArrow=classic;html=1;rounded=0;flowAnimation=0;shadow=1;fillColor=#d80073;strokeColor=#A50040;" edge="1" parent="1">
          <mxGeometry width="100" height="100" relative="1" as="geometry">
            <mxPoint x="180" y="-500" as="sourcePoint" />
            <mxPoint x="1040" y="-500" as="targetPoint" />
          </mxGeometry>
        </mxCell>
        <mxCell id="mL7WgcL4VkOcFJiBh1qk-60" value="&lt;font style=&quot;font-size: 15px; background-color: rgb(61, 255, 100);&quot;&gt;TLS Tunnel Established Start&lt;/font&gt;" style="edgeLabel;html=1;align=center;verticalAlign=middle;resizable=0;points=[];fontStyle=1" vertex="1" connectable="0" parent="mL7WgcL4VkOcFJiBh1qk-59">
          <mxGeometry x="0.0486" y="-5" relative="1" as="geometry">
            <mxPoint x="-28" y="-6" as="offset" />
          </mxGeometry>
        </mxCell>
        <mxCell id="mL7WgcL4VkOcFJiBh1qk-61" value="" style="shape=flexArrow;endArrow=classic;startArrow=classic;html=1;rounded=0;flowAnimation=0;shadow=1;fillColor=#d80073;strokeColor=#A50040;" edge="1" parent="1">
          <mxGeometry width="100" height="100" relative="1" as="geometry">
            <mxPoint x="170" y="-200" as="sourcePoint" />
            <mxPoint x="1041" y="-198" as="targetPoint" />
          </mxGeometry>
        </mxCell>
        <mxCell id="mL7WgcL4VkOcFJiBh1qk-62" value="&lt;font style=&quot;font-size: 15px; background-color: rgb(61, 255, 100);&quot;&gt;TLS Tunnel Established End&lt;/font&gt;" style="edgeLabel;html=1;align=center;verticalAlign=middle;resizable=0;points=[];fontStyle=1" vertex="1" connectable="0" parent="mL7WgcL4VkOcFJiBh1qk-61">
          <mxGeometry x="0.0486" y="-5" relative="1" as="geometry">
            <mxPoint x="-28" y="-6" as="offset" />
          </mxGeometry>
        </mxCell>
        <mxCell id="mL7WgcL4VkOcFJiBh1qk-64" value="" style="endArrow=classic;html=1;rounded=0;flowAnimation=1;shadow=1;fillColor=#6d8764;strokeColor=#3A5431;strokeWidth=3;" edge="1" parent="1">
          <mxGeometry relative="1" as="geometry">
            <mxPoint x="1030" y="-110" as="sourcePoint" />
            <mxPoint x="600" y="-110" as="targetPoint" />
          </mxGeometry>
        </mxCell>
        <mxCell id="mL7WgcL4VkOcFJiBh1qk-65" value="Label" style="edgeLabel;resizable=0;html=1;;align=center;verticalAlign=middle;" connectable="0" vertex="1" parent="mL7WgcL4VkOcFJiBh1qk-64">
          <mxGeometry relative="1" as="geometry" />
        </mxCell>
        <mxCell id="mL7WgcL4VkOcFJiBh1qk-66" value="&lt;span style=&quot;font-size: 14px;&quot;&gt;&lt;b&gt;Radius Access-Accept/Access-Reject&lt;/b&gt;&lt;/span&gt;" style="edgeLabel;html=1;align=center;verticalAlign=middle;resizable=0;points=[];" vertex="1" connectable="0" parent="mL7WgcL4VkOcFJiBh1qk-64">
          <mxGeometry x="-0.0071" y="3" relative="1" as="geometry">
            <mxPoint as="offset" />
          </mxGeometry>
        </mxCell>
        <mxCell id="mL7WgcL4VkOcFJiBh1qk-67" value="" style="endArrow=classic;html=1;rounded=0;flowAnimation=1;shadow=1;fillColor=#6d8764;strokeColor=#3A5431;strokeWidth=3;" edge="1" parent="1">
          <mxGeometry relative="1" as="geometry">
            <mxPoint x="590" y="-80" as="sourcePoint" />
            <mxPoint x="180" y="-80" as="targetPoint" />
          </mxGeometry>
        </mxCell>
        <mxCell id="mL7WgcL4VkOcFJiBh1qk-68" value="Label" style="edgeLabel;resizable=0;html=1;;align=center;verticalAlign=middle;" connectable="0" vertex="1" parent="mL7WgcL4VkOcFJiBh1qk-67">
          <mxGeometry relative="1" as="geometry" />
        </mxCell>
        <mxCell id="mL7WgcL4VkOcFJiBh1qk-69" value="&lt;span style=&quot;font-size: 14px;&quot;&gt;&lt;b&gt;EAP-Success/Failure&lt;/b&gt;&lt;/span&gt;" style="edgeLabel;html=1;align=center;verticalAlign=middle;resizable=0;points=[];" vertex="1" connectable="0" parent="mL7WgcL4VkOcFJiBh1qk-67">
          <mxGeometry x="-0.0071" y="3" relative="1" as="geometry">
            <mxPoint as="offset" />
          </mxGeometry>
        </mxCell>
      </root>
    </mxGraphModel>
  </diagram>
</mxfile>
